<?xml version="1.0" encoding="utf-8"?>
<!-- Generator: Adobe Illustrator 16.0.3, SVG Export Plug-In . SVG Version: 6.00 Build 0)  -->
<!DOCTYPE svg PUBLIC "-//W3C//DTD SVG 1.1//EN" "http://www.w3.org/Graphics/SVG/1.1/DTD/svg11.dtd">
<svg version="1.1" xmlns="http://www.w3.org/2000/svg" xmlns:xlink="http://www.w3.org/1999/xlink" x="0px" y="0px" width="623.6px"
	 height="255.1px" viewBox="0 0 623.6 255.1" style="enable-background:new 0 0 623.6 255.1;" xml:space="preserve">
<style type="text/css">
<![CDATA[
	.st0{fill:#115EAA;}
	.st1{clip-path:url(#SVGID_2_);fill:#115EAA;}
	.st2{clip-path:url(#SVGID_2_);fill:#142B46;}
	.st3{fill:#FFFFFF;}
]]>
</style>
<g id="BG">
	<rect class="st3" width="623.6" height="255.1"/>
</g>
<g id="Logo">
	<g>
		<g>
			<g>
				<defs>
					<rect id="SVGID_1_" x="18.5" y="21.3" width="589.1" height="205.3"/>
				</defs>
				<clipPath id="SVGID_2_">
					<use xlink:href="#SVGID_1_"  style="overflow:visible;"/>
				</clipPath>
				<path class="st2" d="M411.7,121.2c0,5.3-0.9,10.3-2.8,14.9c-1.9,4.6-4.4,8.7-7.6,12.2c-3.2,3.5-7,6.2-11.4,8.2
					c-4.4,2-9.1,3-14.1,3c-4.9,0-9.4-0.9-13.6-2.9c-4.2-1.9-8-4.5-11.2-7.9c-3.2-3.4-5.8-7.4-7.8-12c-2-4.6-3-9.8-3.2-15.4V47.4
					h-16.9v73.9c0,5.3-1,10.3-2.9,14.9c-2,4.6-4.6,8.7-7.9,12.2c-3.3,3.5-7.1,6.2-11.5,8.2c-4.4,2-9,3-13.9,3c-5,0-9.7-1-14.1-3
					c-4.4-2-8.2-4.7-11.4-8.2c-3.2-3.5-5.8-7.5-7.6-12.2c-1.9-4.6-2.8-9.6-2.8-14.9V47.4h-16.5v73.9c0,7.8,1.4,15,4.1,21.8
					c2.7,6.8,6.5,12.7,11.2,17.7c4.7,5,10.2,9.1,16.6,12c6.3,3,13.2,4.5,20.6,4.5c9.2,0,17.7-2.3,25.5-6.9
					c7.8-4.6,14.1-10.9,18.9-18.8c4.7,7.9,10.9,14.2,18.7,18.8c7.8,4.6,16.3,6.9,25.7,6.9c7.2,0,14-1.5,20.5-4.5
					c6.4-3,12.1-7,16.9-12c4.9-5,8.7-10.9,11.4-17.7c2.7-6.8,4.1-14,4.1-21.8V21.3l-16.9,26V121.2z"/>
				<path class="st2" d="M562,63.7c-0.8-1-1.6-1.9-2.6-2.7c-5.8-6.3-12.6-11.2-20.5-14.8c-7.8-3.6-16.2-5.3-25.2-5.3
					c-8.9,0-17.3,1.8-25.2,5.3c-7.8,3.6-14.7,8.4-20.6,14.6s-10.5,13.4-13.9,21.7c-3.4,8.3-5.1,17.1-5.1,26.5
					c0,9.4,1.7,18.3,5.1,26.5c3.4,8.3,8,15.5,13.9,21.7c5.9,6.2,12.7,11.1,20.6,14.6c7.8,3.6,16.2,5.3,25.2,5.3
					c8.9,0,17.3-1.8,25.2-5.3c7.8-3.6,14.7-8.4,20.5-14.5c0.9-1,1.8-1.9,2.6-2.7v3.7c0,6.9-1.3,13.5-3.8,19.7
					c-0.6,1.6-1.3,3.1-2.1,4.6l0,0c-0.1,0.2-0.2,0.3-0.3,0.5c-0.6,1.1-1.2,2.2-1.8,3.2c-0.2,0.4-0.5,0.7-0.7,1.1
					c-0.6,0.9-1.2,1.8-1.9,2.7c-0.2,0.3-0.5,0.6-0.7,1c-0.9,1.1-1.8,2.2-2.8,3.2c0,0,0,0,0,0c-0.5,0.5-1.1,1-1.6,1.5
					c-4,3.9-8.6,7-13.8,9.4c-1.2,0.6-2.5,1-3.7,1.5c-4.8,1.7-9.7,2.5-14.9,2.5c-4.5,0-8.9-0.7-13.1-1.9c-1.9-0.6-3.7-1.2-5.6-2
					c-1.6-0.7-3.1-1.5-4.6-2.4c-4-2.3-7.6-5.2-10.8-8.5c-1-1-1.9-2.1-2.8-3.3c-0.2-0.3-0.5-0.6-0.7-0.9c-0.7-0.9-1.3-1.8-1.9-2.7
					c-0.2-0.4-0.5-0.7-0.7-1c-0.7-1-1.3-2.1-1.8-3.2c-0.1-0.2-0.2-0.3-0.3-0.5l0,0c-0.8-1.5-1.5-3-2.1-4.6c-0.3-0.7-0.6-1.5-0.8-2.2
					l-2.6-2.1c-2.6-2.1-5-4.4-7.2-6.7c-3.6-3.8-6.8-7.9-9.6-12.4v3.7c0,9.4,1.7,18.3,5.1,26.5c1.5,3.7,3.3,7.1,5.3,10.4l0,0
					c0,0,0,0.1,0.1,0.1c1.1,1.7,2.2,3.4,3.4,5c0.2,0.3,0.4,0.6,0.7,0.9c1.2,1.5,2.4,2.9,3.7,4.4c0.2,0.2,0.4,0.5,0.6,0.8
					c0,0,0,0,0.1,0.1c0,0,0,0,0.1,0.1c5.9,6.2,12.7,11.1,20.6,14.6c1.6,0.7,3.1,1.3,4.7,1.9c0.4,0.1,0.8,0.3,1.2,0.4
					c0,0,0.1,0,0.1,0c1,0.3,1.9,0.6,2.9,0.9c5.2,1.4,10.5,2.1,16.1,2.1c8.9,0,17.3-1.8,25.2-5.3c0.3-0.1,0.6-0.3,0.8-0.4
					c7.5-3.5,14.1-8.2,19.7-14.2c0,0,0,0,0.1-0.1c0,0,0,0,0.1-0.1c0.2-0.3,0.4-0.5,0.7-0.8c1.3-1.4,2.5-2.8,3.7-4.3
					c0.2-0.3,0.4-0.6,0.7-1c1.2-1.6,2.3-3.3,3.4-5c0,0,0-0.1,0.1-0.1l0,0c2-3.3,3.8-6.7,5.3-10.4c3.4-8.3,5.1-17.1,5.1-26.5v-52.1
					v-59H562V63.7z M558.2,128.8c-2.5,6.2-6,11.6-10.3,16.2c-4.4,4.6-9.5,8.3-15.4,10.9c-5.9,2.6-12.1,4-18.7,4s-12.8-1.3-18.7-4
					c-5.9-2.6-11-6.3-15.4-10.9c-4.4-4.6-7.8-10-10.3-16.2c-2.5-6.2-3.8-12.8-3.8-19.7s1.3-13.5,3.8-19.7c2.5-6.2,6-11.6,10.3-16.2
					c4.4-4.6,9.5-8.3,15.4-10.9c5.9-2.6,12.1-4,18.7-4s12.8,1.3,18.7,4c5.9,2.6,11,6.3,15.4,10.9c4.4,4.6,8,10,10.8,16.1
					c2.2,5.5,3.3,11.4,3.3,17.9C562,115.4,560.7,122.6,558.2,128.8"/>
				<path class="st1" d="M604.8,153.5c-1.9-2-4.2-3-7.1-3c-2.8,0-5.2,1-7.1,3c-1.9,2-2.8,4.5-2.8,7.4c0,3,0.9,5.5,2.8,7.4
					c1.9,2,4.2,3,7.1,3c2.8,0,5.2-1,7.1-3c1.9-2,2.8-4.5,2.8-7.4C607.6,157.9,606.7,155.5,604.8,153.5"/>
				<path class="st2" d="M195.8,50.6v70.6c0,5.3-0.9,10.3-2.8,14.9c-1.9,4.6-4.4,8.7-7.6,12.1c-3.2,3.5-7,6.2-11.4,8.2
					c-4.4,2-9.1,3-14.1,3c-4.9,0-9.4-1-13.6-2.9c-4.2-1.9-8-4.5-11.2-7.9c-3.2-3.4-5.8-7.4-7.8-12c-2-4.6-3-9.8-3.2-15.4V47.4h-16.9
					v73.9c0,5.3-1,10.3-2.9,14.9c-2,4.6-4.6,8.7-7.9,12.1c-3.3,3.5-7.1,6.2-11.5,8.2c-4.4,2-9,3-13.9,3c-5,0-9.7-1-14.1-3
					c-4.4-2-8.2-4.7-11.4-8.2c-3.2-3.5-5.8-7.5-7.6-12.1c-1.9-4.6-2.8-9.6-2.8-14.9V47.4H18.5v73.9c0,7.8,1.4,15,4.1,21.8
					c2.7,6.8,6.5,12.7,11.2,17.7c4.7,5,10.2,9,16.6,12c6.3,3,13.2,4.5,20.6,4.5c9.2,0,17.8-2.3,25.5-6.9
					c7.8-4.6,14.1-10.9,18.9-18.8c4.7,7.9,10.9,14.2,18.7,18.8c7.8,4.6,16.3,6.9,25.7,6.9c7.2,0,14-1.5,20.5-4.5
					c6.4-3,12.1-7,16.9-12c4.9-5,8.7-10.9,11.4-17.7c2.7-6.8,4.1-14,4.1-21.8V50.6l0-25.6L195.8,50.6L195.8,50.6z"/>
			</g>
		</g>
		<path class="st0" d="M22,204.5c7.6,0,10.2,5.7,10.2,11.2c0,5.2-2.2,11.2-10.3,11.2H16v-22.5H22z M29.8,215.7
			c0-4.7-2.1-9.2-7.5-9.2h-4.1v18.4H22C28.1,224.9,29.8,220.1,29.8,215.7"/>
		<path class="st0" d="M37,205.7c0-0.9,0.6-1.5,1.5-1.5c0.9,0,1.5,0.7,1.5,1.5c0,0.8-0.6,1.5-1.5,1.5C37.6,207.2,37,206.5,37,205.7
			 M37.3,210.5h2.2v16.4h-2.2V210.5z"/>
		<path class="st0" d="M49,232c5.3-0.3,6.5-2.2,6.5-4.4v-2.5c-0.9,1.4-2.2,2.2-4.5,2.2c-3.5,0-6.7-2.9-6.7-8.6
			c0-5.4,2.8-8.6,6.8-8.6c2.5,0,3.8,1.3,4.4,1.9v-1.5h2.2v16.2c0,5.4-3.7,6.9-7.7,7.1L49,232z M55.5,222.6v-7.9
			c-0.9-1.6-2.8-2.5-4-2.5c-3.2,0-4.9,2.3-4.9,6.6s2.1,6.6,4.9,6.6C52.9,225.3,54.6,224.3,55.5,222.6"/>
		<path class="st0" d="M63.2,205.7c0-0.9,0.6-1.5,1.5-1.5c0.9,0,1.5,0.7,1.5,1.5c0,0.8-0.6,1.5-1.5,1.5
			C63.8,207.2,63.2,206.5,63.2,205.7 M63.5,210.5h2.2v16.4h-2.2V210.5z"/>
		<path class="st0" d="M72.5,223.6v-11h-2.8v-2h2.8v-5.7l2.2-1.1v6.8h4.2v2h-4.2v10.1c0,1.4,0.2,2.6,1.8,2.6c1.1,0,1.9-0.5,2.5-1
			l-0.3,2.3c-0.8,0.5-1.7,0.7-3,0.7C73.4,227.3,72.5,225.7,72.5,223.6"/>
		<path class="st0" d="M92.6,225.3c-1.3,1.2-3.1,2-4.8,2c-3.3,0-5.6-1.9-5.6-5.6c0-3.8,2.9-5.4,6-5.4c1.4,0,2.8,0.3,4.4,1.2v-1.4
			c0-3.3-1.8-4-3.6-4c-1.6,0-3.7,0.9-4.9,1.8l-0.6-1.9c1.3-0.8,3.5-1.8,5.7-1.8c2.3,0,5.5,1,5.5,5.7v11.1h-2.1V225.3z M92.6,222.8
			v-3.2c-1.1-0.7-2.8-1.4-4.2-1.4c-2.2,0-4.1,1.1-4.1,3.5c0,2.2,1.3,3.6,3.7,3.6C90,225.4,91.6,224.1,92.6,222.8"/>
		<polygon class="st0" points="99.9,204.8 102.2,203.8 102.2,226.9 99.9,226.9 		"/>
		<polygon class="st0" points="121.7,226.9 119.4,226.9 119.4,206.6 113.3,206.6 113.3,204.5 127.9,204.5 127.9,206.6 121.7,206.6 
					"/>
		<path class="st0" d="M128.8,218.7c0-5.5,2.9-8.6,7.1-8.6c3.5,0,6.5,2.4,6.5,7.9c0,0.4,0,0.9-0.1,1.6h-11.2
			c0.4,3.3,2.1,5.6,4.8,5.6c1.2,0,2.4-0.4,3.7-1.3l1.2,1.5c-1.3,1.1-3.1,1.9-5,1.9C131.5,227.3,128.8,223.3,128.8,218.7
			 M140.2,217.6c0-4.4-2.5-5.5-4.2-5.5c-2.6,0-4.6,1.7-4.8,5.5H140.2z"/>
		<path class="st0" d="M145.8,218.8c0-5.4,2.5-8.6,6.7-8.6c2.4,0,4.4,1.2,5.3,3.4l-2.1,0.8c-0.5-1.3-1.5-2.2-3.3-2.2
			c-3.1,0-4.3,2.5-4.3,6.6c0,4.1,1.3,6.6,4.2,6.6c1.8,0,3.1-1,3.6-2.5l2,0.8c-0.8,2.3-3,3.8-5.7,3.8
			C148.4,227.3,145.8,224.2,145.8,218.8"/>
		<path class="st0" d="M162.4,204.8l2.2-1.1v8.6c1-1.5,2.5-2.2,4.2-2.2c4,0,5.9,2.3,5.9,7.7v9.1h-2.2v-10c0-3.5-1.6-4.8-3.8-4.8
			c-2.3,0-4,1.1-4,4.7v10.1h-2.2V204.8z"/>
		<path class="st0" d="M190.5,216.9c0-3.5-1.6-4.8-3.8-4.8c-2.3,0-4,1.1-4,4.7v10.1h-2.2v-16.4h2.2v1.8c1-1.5,2.5-2.2,4.2-2.2
			c4,0,5.9,2.3,5.9,7.7v9.1h-2.2V216.9z"/>
		<path class="st0" d="M197.2,218.8c0-5.4,2.8-8.6,7-8.6s7,3.1,7,8.6c0,5.4-2.8,8.6-7,8.6S197.2,224.2,197.2,218.8 M208.9,218.7
			c0-4.1-1.6-6.6-4.7-6.6c-3,0-4.7,2.3-4.7,6.6c0,4.1,1.6,6.6,4.7,6.6C207.2,225.3,208.9,222.8,208.9,218.7"/>
		<polygon class="st0" points="216.1,204.8 218.3,203.8 218.3,226.9 216.1,226.9 		"/>
		<path class="st0" d="M223.1,218.8c0-5.4,2.8-8.6,7-8.6s7,3.1,7,8.6c0,5.4-2.8,8.6-7,8.6S223.1,224.2,223.1,218.8 M234.9,218.7
			c0-4.1-1.6-6.6-4.7-6.6c-3.1,0-4.7,2.3-4.7,6.6c0,4.1,1.6,6.6,4.7,6.6C233.2,225.3,234.9,222.8,234.9,218.7"/>
		<path class="st0" d="M245.5,232c5.3-0.3,6.5-2.2,6.5-4.4v-2.5c-0.9,1.4-2.2,2.2-4.5,2.2c-3.5,0-6.7-2.9-6.7-8.6
			c0-5.4,2.8-8.6,6.8-8.6c2.5,0,3.8,1.3,4.4,1.9v-1.5h2.2v16.2c0,5.4-3.7,6.9-7.7,7.1L245.5,232z M251.9,222.6v-7.9
			c-0.9-1.6-2.8-2.5-4-2.5c-3.2,0-4.9,2.3-4.9,6.6s2.1,6.6,4.9,6.6C249.3,225.3,251.1,224.3,251.9,222.6"/>
		<path class="st0" d="M264.4,226.4l-6-15.9h2.3l4.1,11.7c0.2,0.5,0.4,1.1,0.5,1.7l0.6-1.7l4.2-11.7h2.4l-8.4,22.6h-2.2L264.4,226.4
			z"/>
		<rect x="284.6" y="204.5" class="st0" width="2.2" height="22.5"/>
		<path class="st0" d="M303.2,216.9c0-3.5-1.6-4.8-3.8-4.8c-2.3,0-4,1.1-4,4.7v10.1h-2.2v-16.4h2.2v1.8c1-1.5,2.5-2.2,4.2-2.2
			c4,0,5.9,2.3,5.9,7.7v9.1h-2.2V216.9z"/>
		<path class="st0" d="M321.2,216.9c0-3.5-1.6-4.8-3.8-4.8c-2.3,0-4,1.1-4,4.7v10.1H311v-16.4h2.2v1.8c1-1.5,2.5-2.2,4.2-2.2
			c4,0,5.9,2.3,5.9,7.7v9.1h-2.2V216.9z"/>
		<path class="st0" d="M327.9,218.8c0-5.4,2.8-8.6,7-8.6s7,3.1,7,8.6c0,5.4-2.8,8.6-7,8.6S327.9,224.2,327.9,218.8 M339.6,218.7
			c0-4.1-1.6-6.6-4.7-6.6s-4.7,2.3-4.7,6.6c0,4.1,1.6,6.6,4.7,6.6C337.9,225.3,339.6,222.8,339.6,218.7"/>
		<path class="st0" d="M345,210.5h2.3l4,11.2c0.2,0.6,0.4,1.1,0.6,1.7c0.2-0.6,0.4-1.2,0.6-1.7l3.9-11.2h2.2l-6,16.4H351L345,210.5z
			"/>
		<path class="st0" d="M371.6,225.3c-1.3,1.2-3,2-4.8,2c-3.3,0-5.6-1.9-5.6-5.6c0-3.8,2.9-5.4,6-5.4c1.4,0,2.8,0.3,4.4,1.2v-1.4
			c0-3.3-1.8-4-3.6-4c-1.6,0-3.7,0.9-4.9,1.8l-0.6-1.9c1.3-0.8,3.5-1.8,5.7-1.8c2.3,0,5.5,1,5.5,5.7v11.1h-2.1V225.3z M371.6,222.8
			v-3.2c-1.1-0.7-2.8-1.4-4.2-1.4c-2.2,0-4.1,1.1-4.1,3.5c0,2.2,1.3,3.6,3.7,3.6C369,225.4,370.6,224.1,371.6,222.8"/>
		<path class="st0" d="M379.6,223.6v-11h-2.8v-2h2.8v-5.7l2.2-1.1v6.8h4.2v2h-4.2v10.1c0,1.4,0.2,2.6,1.8,2.6c1.1,0,1.9-0.5,2.5-1
			l-0.3,2.3c-0.8,0.5-1.7,0.7-3,0.7C380.5,227.3,379.6,225.7,379.6,223.6"/>
		<path class="st0" d="M390.3,205.7c0-0.9,0.6-1.5,1.5-1.5c0.9,0,1.5,0.7,1.5,1.5c0,0.8-0.6,1.5-1.5,1.5
			C390.9,207.2,390.3,206.5,390.3,205.7 M390.7,210.5h2.2v16.4h-2.2V210.5z"/>
		<path class="st0" d="M397.6,218.8c0-5.4,2.8-8.6,7-8.6c4.2,0,7,3.1,7,8.6c0,5.4-2.8,8.6-7,8.6
			C400.4,227.3,397.6,224.2,397.6,218.8 M409.3,218.7c0-4.1-1.6-6.6-4.7-6.6c-3.1,0-4.7,2.3-4.7,6.6c0,4.1,1.6,6.6,4.7,6.6
			C407.6,225.3,409.3,222.8,409.3,218.7"/>
		<path class="st0" d="M426.4,216.9c0-3.5-1.6-4.8-3.8-4.8c-2.3,0-4,1.1-4,4.7v10.1h-2.2v-16.4h2.2v1.8c1-1.5,2.5-2.2,4.2-2.2
			c4,0,5.9,2.3,5.9,7.7v9.1h-2.2V216.9z"/>
	</g>
</g>
</svg>
